# xmcd
#
# Track frame offsets:
#   150
#   12942
#   29231
#   43001
#   61226
#   76959
#   92102
#   110380
#   127508
#   143707
#   161041
#   178441
#
# Disc length: 2588 seconds
#
# Revision: 0
# Processed by: cddbd v1.5.2PL0 Copyright (c) Steve Scherf et al.
# Submitted via: GXTranscoder 2.0.1939
#
DISCID=9d0a1a0c
DTITLE=Maratonci021 - Ko ce zaplakati pre
DYEAR=1900
DGENRE=narodna
TTITLE0=Ko ce zaplakati pre
TTITLE1=Sam na Svetu
TTITLE2=Daniema me zanima
TTITLE3=Ostavljena dusa
TTITLE4=Jaci pol
TTITLE5=Nevolim te vise
TTITLE6=LJubav me je otrovala
TTITLE7=Kolo srece
TTITLE8=Istina kad je to
TTITLE9=Nema vise nade
TTITLE10=Pijanac
TTITLE11=Ja odlazim tugo
EXTD=
EXTT0=
EXTT1=
EXTT2=
EXTT3=
EXTT4=
EXTT5=
EXTT6=
EXTT7=
EXTT8=
EXTT9=
EXTT10=
EXTT11=
PLAYORDER=
